<?xml version="1.0"?>
<svg xmlns="http://www.w3.org/2000/svg" width="512" height="512" viewBox="0 0 128 128"><g><path d="M32.875,107.563A12.438,12.438,0,1,0,20.437,120,12.452,12.452,0,0,0,32.875,107.563Zm-21.375,0a8.938,8.938,0,1,1,8.937,8.937A8.948,8.948,0,0,1,11.5,107.563Z"/><path d="M9.75,28H31.026a1.75,1.75,0,0,0,1.75-1.75V9.75A1.75,1.75,0,0,0,31.026,8H9.75A1.75,1.75,0,0,0,8,9.75v16.5A1.75,1.75,0,0,0,9.75,28ZM11.5,11.5H29.276v13H11.5Z"/><path d="M9.75,55.377H31.026a1.75,1.75,0,0,0,1.75-1.75v-16.5a1.75,1.75,0,0,0-1.75-1.75H9.75A1.75,1.75,0,0,0,8,37.123v16.5A1.75,1.75,0,0,0,9.75,55.377Zm1.75-16.5H29.276v13H11.5Z"/><path d="M9.75,82.75H31.026A1.75,1.75,0,0,0,32.776,81V64.5a1.75,1.75,0,0,0-1.75-1.75H9.75A1.75,1.75,0,0,0,8,64.5V81A1.75,1.75,0,0,0,9.75,82.75Zm1.75-16.5H29.276v13H11.5Z"/><path d="M84.183,58.793a1.748,1.748,0,0,0,2.474,0l11.669-11.67a1.748,1.748,0,0,0,0-2.474L83.281,29.6a1.8,1.8,0,0,0-2.474,0L69.138,41.273a1.749,1.749,0,0,0,0,2.475ZM82.044,33.316l12.57,12.57-9.194,9.2L72.85,42.511Z"/><path d="M64.826,78.149a1.749,1.749,0,0,0,2.475,0L78.971,66.48a1.752,1.752,0,0,0,0-2.475L63.926,48.96a1.749,1.749,0,0,0-2.475,0L49.781,60.629a1.752,1.752,0,0,0,0,2.475ZM62.688,52.672l12.571,12.57-9.2,9.195-12.57-12.57Z"/><path d="M101.747,119.9h16.5a1.749,1.749,0,0,0,1.75-1.75V96.875a1.75,1.75,0,0,0-1.75-1.75h-16.5a1.75,1.75,0,0,0-1.75,1.75v21.276A1.749,1.749,0,0,0,101.747,119.9Zm1.75-21.276h13V116.4h-13Z"/><path d="M74.373,119.9h16.5a1.749,1.749,0,0,0,1.75-1.75V96.875a1.75,1.75,0,0,0-1.75-1.75h-16.5a1.75,1.75,0,0,0-1.75,1.75v21.276A1.749,1.749,0,0,0,74.373,119.9Zm1.75-21.276h13V116.4h-13Z"/><path d="M126.25,87.125H69.778L109.71,47.193a1.749,1.749,0,0,0,0-2.475L83.281,18.291a1.748,1.748,0,0,0-2.474,0L40.875,58.222V1.75A1.75,1.75,0,0,0,39.125,0H1.75A1.75,1.75,0,0,0,0,1.75V107.563A20.46,20.46,0,0,0,20.437,128H126.25a1.75,1.75,0,0,0,1.75-1.75V88.875A1.75,1.75,0,0,0,126.25,87.125Zm-64.5,11.5V116.4h-13v-8.248l9.527-9.528ZM40.875,74.485l2.457-2.457L55.9,84.6l-9.195,9.194L40.875,87.96ZM82.044,22,106,45.956,40.509,111.444a24.931,24.931,0,0,0,.366-3.881V92.91l4.595,4.595a1.748,1.748,0,0,0,2.474,0l11.67-11.67a1.748,1.748,0,0,0,0-2.474L44.569,68.316a1.8,1.8,0,0,0-2.474,0l-1.22,1.22V63.172ZM3.5,107.563V3.5H37.375V107.563c.071,8.623-7.519,17.212-16.938,16.937A16.956,16.956,0,0,1,3.5,107.563Zm121,16.937H31.885a20.739,20.739,0,0,0,3-2.486L45.25,111.652v6.5A1.749,1.749,0,0,0,47,119.9H63.5a1.749,1.749,0,0,0,1.75-1.75V96.875a1.75,1.75,0,0,0-1.75-1.75H61.777l4.5-4.5H124.5Z"/></g></svg>
