<svg id="Capa_1" enable-background="new 0 0 511.981 511.981" height="512" viewBox="0 0 511.981 511.981" width="512" xmlns="http://www.w3.org/2000/svg"><g><path d="m126.948 134.91c-.731-12.419-10.247-22.336-22.633-23.583-7.661-.765-15.341-1.214-22.823-1.336-4.123-.051-7.554 3.235-7.621 7.377s3.235 7.554 7.377 7.621c7.068.115 14.328.54 21.571 1.263 5.009.504 8.859 4.515 9.154 9.534 1.695 29.096 1.695 58.602 0 87.694-.295 5.023-4.146 9.034-9.149 9.538-17.228 1.721-34.699 1.721-51.923 0-5.015-.504-8.864-4.512-9.153-9.534-1.696-29.096-1.696-58.602 0-87.703.289-5.017 4.139-9.024 9.114-9.525l1.25-.12c4.123-.394 7.147-4.055 6.754-8.178s-4.063-7.146-8.178-6.754l-1.289.124c-12.395 1.247-21.91 11.168-22.626 23.586-1.729 29.675-1.729 59.768 0 89.438.716 12.423 10.231 22.344 22.631 23.592 9.109.91 18.281 1.365 27.455 1.365s18.351-.455 27.462-1.366c12.38-1.245 21.896-11.163 22.627-23.586 1.729-29.675 1.729-59.768 0-89.447z"/><path d="m100.147 190.252c-15.455 1.008-31.127 1.008-46.58 0-4.094-.281-7.702 2.861-7.973 6.996-.27 4.133 2.862 7.703 6.996 7.972 8.051.525 16.158.788 24.267.788 8.107 0 16.215-.263 24.267-.788 4.134-.27 7.266-3.839 6.996-7.972-.27-4.134-3.855-7.282-7.973-6.996z"/><path d="m101.124 154.047c-16.104-1.051-32.432-1.05-48.533 0-4.134.27-7.266 3.839-6.996 7.972.259 3.967 3.558 7.012 7.477 7.012.164 0 .33-.005.496-.017 15.453-1.008 31.125-1.008 46.58 0 4.109.283 7.703-2.861 7.973-6.996.269-4.132-2.863-7.702-6.997-7.971z"/><path d="m76.859 329.826c-21.691 0-39.339 17.647-39.339 39.338s17.647 39.338 39.339 39.338 39.338-17.647 39.338-39.338-17.646-39.338-39.338-39.338zm0 63.676c-13.421 0-24.339-10.918-24.339-24.338s10.918-24.338 24.339-24.338c13.42 0 24.338 10.918 24.338 24.338s-10.918 24.338-24.338 24.338z"/><path d="m242.192 111.328c-18.217-1.822-36.692-1.822-54.909 0-12.389 1.239-21.907 11.157-22.633 23.583-1.731 29.677-1.731 59.771 0 89.448.726 12.426 10.244 22.344 22.633 23.583 9.108.911 18.281 1.367 27.455 1.367 9.173 0 18.346-.456 27.454-1.367 12.391-1.239 21.908-11.158 22.633-23.583 1.731-29.677 1.731-59.771 0-89.447-.724-12.426-10.242-22.345-22.633-23.584zm7.659 112.158c-.293 5.022-4.141 9.03-9.15 9.531-17.228 1.723-34.695 1.724-51.925 0-5.009-.501-8.857-4.51-9.15-9.532-1.697-29.097-1.697-58.603 0-87.7.293-5.022 4.142-9.031 9.15-9.532 8.614-.862 17.288-1.292 25.962-1.292 8.675 0 17.349.431 25.963 1.292 5.01.501 8.857 4.509 9.15 9.532 1.697 29.097 1.697 58.603 0 87.701z"/><path d="m238.944 190.25c-16.063 1.01-32.354 1.01-48.416 0-4.133-.249-7.695 2.881-7.956 7.015-.26 4.134 2.881 7.696 7.015 7.956 8.344.524 16.747.787 25.149.787s16.806-.262 25.149-.787c4.134-.26 7.274-3.822 7.015-7.956s-3.807-7.264-7.956-7.015z"/><path d="m239.886 154.045c-16.688-1.049-33.611-1.049-50.299 0-4.134.26-7.274 3.822-7.015 7.956.261 4.134 3.822 7.268 7.956 7.015 16.063-1.01 32.354-1.01 48.416 0 .16.01.319.015.478.015 3.928 0 7.229-3.056 7.479-7.03.259-4.134-2.881-7.696-7.015-7.956z"/><path d="m214.738 329.826c-21.691 0-39.339 17.647-39.339 39.338s17.647 39.338 39.339 39.338 39.338-17.647 39.338-39.338-17.646-39.338-39.338-39.338zm0 63.676c-13.421 0-24.339-10.918-24.339-24.338s10.918-24.338 24.339-24.338c13.42 0 24.338 10.918 24.338 24.338s-10.918 24.338-24.338 24.338z"/><path d="m511.794 398.458c-6.008-26.43-12.407-53.224-19.019-79.638-1.006-4.019-5.078-6.462-9.097-5.455-4.018 1.005-6.46 5.078-5.454 9.096 6.137 24.518 12.089 49.365 17.715 73.938-35.858 20.26-74.845 30.959-116.031 31.841-32.902-102.552-61.752-207.687-85.796-312.66 35.882-20.271 74.866-30.968 116.04-31.843 22.185 69.17 42.606 139.738 60.727 209.839 1.037 4.01 5.131 6.421 9.139 5.384 4.011-1.037 6.421-5.128 5.385-9.138-18.653-72.162-39.736-144.816-62.663-215.944-.999-3.1-3.884-5.2-7.141-5.199-45.016.01-87.633 11.007-126.802 32.694-.152-3.685-.295-7.373-.457-11.055-.145-3.253-2.37-6.042-5.511-6.903-45.388-12.438-91.403-12.618-136.81-.535-45.405-12.081-91.422-11.903-136.811.536-3.141.861-5.366 3.649-5.511 6.903-4.93 111.667-4.93 224.907 0 336.574.145 3.253 2.37 6.042 5.511 6.903 23.024 6.31 46.21 9.465 69.396 9.465 22.521 0 45.042-2.977 67.414-8.93 45.406 12.083 91.423 11.903 136.81-.535 3.141-.861 5.366-3.649 5.511-6.903 3.799-86.049 4.657-173.029 2.602-259.505 22.114 91.025 47.727 181.853 76.383 270.715.999 3.099 3.883 5.198 7.138 5.198h.003c47.751-.021 92.782-12.378 133.843-36.729 2.798-1.662 4.208-4.939 3.486-8.114zm-493.351 22.256c-4.591-107.598-4.591-216.619 0-324.217 39.866-10.03 80.207-10.044 120.075-.054v324.325c-39.868 9.99-80.208 9.976-120.075-.054zm255.15 0c-39.867 10.031-80.208 10.044-120.074.054v-324.325c39.867-9.99 80.208-9.977 120.074.054 4.591 107.598 4.591 216.619 0 324.217z"/><path d="m434.268 209.71c-6.184-29.082-14.147-58.104-23.668-86.259-3.986-11.791-15.787-18.835-28.066-16.755-18.051 3.063-35.866 7.952-52.952 14.53-11.62 4.474-18.175 16.557-15.586 28.731 6.183 29.077 14.146 58.098 23.669 86.259 3.519 10.407 13.126 17.118 23.773 17.118 1.416 0 2.851-.119 4.292-.363 18.051-3.063 35.866-7.952 52.952-14.53 11.62-4.473 18.174-16.556 15.586-28.731zm-20.975 14.734c-16.157 6.22-33.004 10.843-50.073 13.739-4.973.842-9.734-2.006-11.347-6.771-9.336-27.611-17.144-56.066-23.206-84.575-1.046-4.92 1.604-9.804 6.303-11.613 16.157-6.22 33.004-10.843 50.073-13.739.583-.099 1.163-.147 1.736-.147 4.305 0 8.188 2.712 9.611 6.917 9.334 27.605 17.142 56.06 23.205 84.574 1.047 4.921-1.604 9.806-6.302 11.615z"/><path d="m400.852 183.509c-15.598 5.328-31.689 9.743-47.827 13.123-4.055.849-6.652 4.824-5.804 8.878.74 3.536 3.858 5.964 7.333 5.964.51 0 1.027-.052 1.545-.161 16.737-3.505 33.426-8.084 49.603-13.61 3.919-1.339 6.012-5.602 4.673-9.521-1.34-3.921-5.603-6.011-9.523-4.673z"/><path d="m395.234 163.032c4.055-.849 6.652-4.824 5.804-8.878-.849-4.055-4.833-6.649-8.878-5.803-16.732 3.504-33.421 8.083-49.603 13.61-3.92 1.339-6.013 5.602-4.674 9.521 1.064 3.117 3.978 5.078 7.097 5.078.805 0 1.622-.13 2.425-.404 15.604-5.33 31.696-9.745 47.829-13.124z"/><path d="m424.281 401.946c21.691 0 39.339-17.647 39.339-39.338s-17.647-39.338-39.339-39.338-39.338 17.647-39.338 39.338 17.647 39.338 39.338 39.338zm0-63.677c13.421 0 24.339 10.918 24.339 24.338s-10.918 24.338-24.339 24.338c-13.42 0-24.338-10.918-24.338-24.338s10.918-24.338 24.338-24.338z"/></g></svg>