<svg id="Capa_1" enable-background="new 0 0 512 512" height="512" viewBox="0 0 512 512" width="512" xmlns="http://www.w3.org/2000/svg"><g><g><path d="m394.427 80.814h-.057c-5.523 0-9.972 4.477-9.972 10s4.505 10 10.028 10 10-4.477 10-10-4.476-10-9.999-10z"/><path d="m441.708 80.814h-.057c-5.523 0-9.972 4.477-9.972 10s4.505 10 10.028 10 10-4.477 10-10-4.476-10-9.999-10z"/><path d="m347.118 80.814h-.057c-5.523 0-9.972 4.477-9.972 10s4.506 10 10.029 10 10-4.477 10-10-4.477-10-10-10z"/><path d="m232.912 80.814h-162.649c-5.523 0-10 4.477-10 10s4.477 10 10 10h162.649c5.523 0 10-4.477 10-10s-4.477-10-10-10z"/><path d="m464.13 28.292h-416.288c-26.38 0-47.842 21.424-47.842 47.758v359.872c0 26.349 21.462 47.786 47.842 47.786h268.691 94.363 53.234c26.396 0 47.87-21.437 47.87-47.786v-103.431c0-5.523-4.477-10-10-10s-10 4.477-10 10v103.431c0 15.321-12.502 27.786-27.87 27.786h-43.234v-138.373c0-1.138-.194-2.267-.574-3.339l-47.196-133.212c-1.415-3.993-5.191-6.661-9.427-6.661s-8.012 2.669-9.426 6.662l-47.167 133.212c-.379 1.072-.573 2.201-.573 3.338v138.372h-104.694v-37.641h.914c10.547 0 19.127-8.077 19.127-18.004v-29.99c7.952-4.726 13.592-12.057 16.468-21.545 8.667-28.589-9.053-71.069-30.46-100.49-13.047-17.911-11.503-37.295-10.481-50.122.748-9.396 1.455-18.271-6.409-22.591-8.212-4.512-16.899 1.206-28.285 9.783-24.798 18.721-41.122 37.79-54.587 63.768-19.628 37.92-26.523 90.455 2.934 119.344v31.844c0 9.927 8.581 18.004 19.127 18.004h.942v37.641h-83.287c-15.352 0-27.842-12.465-27.842-27.786v-282.559h472v89.528c0 5.523 4.477 10 10 10s10-4.477 10-10v-166.841c0-26.334-21.475-47.758-47.87-47.758zm-63.234 435.416h-27.196v-128.373h27.196zm-37.193-241.632 11.948 33.724h-23.889zm-19.022 53.724h38.056l14.007 39.536h-66.062zm-18.148 59.535h27.167v128.372h-27.167zm-144.694 128.373h-30.71v-37.641h30.71zm-56.894-101.904c-21.064-20.99-15.79-63.412.939-95.73 12.159-23.459 26.32-39.975 48.87-56.998.895-.674 1.723-1.288 2.488-1.846-1.124 15.011-1.834 38.187 14.476 60.579 21.178 29.105 32.996 64.751 27.49 82.917-1.634 5.39-4.634 8.935-9.341 11.079h-84.922zm6.114 44.257v-24.257h70.82v24.263zm360.941-272.698h-472v-57.313c0-15.306 12.49-27.758 27.842-27.758h416.288c15.368 0 27.87 12.452 27.87 27.758z"/><path d="m502 277.691c-5.523 0-10 4.477-10 10v.057c0 5.523 4.477 9.972 10 9.972s10-4.505 10-10.028-4.477-10.001-10-10.001z"/></g></g></svg>