<svg height="512" viewBox="0 0 58 58" width="512" xmlns="http://www.w3.org/2000/svg"><g id="Page-1" fill="none" fill-rule="evenodd"><g id="040---Pin" fill-rule="nonzero" transform="translate(0 -1)"><path id="Shape" d="m5.786 57.28-4.528 1.682c-.34339588.0895614-.70853547-.0095841-.95947569-.2605243-.25094022-.2509402-.35008576-.6160798-.26052431-.9594757l1.682-4.528c.046535-.1798176.14046772-.3438545.272-.475l18.874-18.873 4.268 4.268-18.873 18.874c-.13114548.1315323-.29518239.225465-.475.272z" fill="#bdc3c7"/><path id="Shape" d="m36.066 41.432c3-8.688 15.653-21.344 15.653-21.344l-12.807-12.807s-12.656 12.657-21.344 15.653z" fill="#c03a2b"/><path id="Shape" d="m43.78 12.15c-2.8645651 5.5243432-7.2055285 10.1457038-12.54 13.35-2.427631 1.4470413-5.0326945 2.573101-7.75 3.35l-5.92-5.92c8.69-2.99 21.34-15.65 21.34-15.65z" fill="#e64c3c"/><rect id="Rectangle-path" fill="#802f34" height="6.037" rx="2" transform="matrix(.707 .707 -.707 .707 22.066 -30.169)" width="26.161" x="34.37" y="8.533"/><rect id="Rectangle-path" fill="#802f34" height="6.037" rx="2" transform="matrix(.707 .707 -.707 .707 31.495 -7.402)" width="40.247" x="4.559" y="31.299"/><g fill="#fb7b76"><path id="Shape" d="m29.256 21.391c-.4488406.0006165-.8431061-.2978989-.9642567-.7300803-.1211506-.4321815.0604972-.8921389.4442567-1.1249197.766-.466 1.57-.991 2.387-1.561.2929578-.2045346.6727798-.2372412.9963908-.0857995.323611.1514416.5418468.4640238.5725.82.0306533.3559761-.130933.7012649-.4238908.9057995-.853.594-1.692 1.143-2.5 1.631-.1544383.0936886-.3313697.1437961-.512.145z"/><path id="Shape" d="m34.951 17.358c-.4251537.0003069-.8040208-.2682439-.9445307-.6695078s-.0119397-.8475031.3205307-1.1124922c1.262-1.007 2.542-2.1 3.8-3.233.4100714-.3700308 1.0424692-.3375714 1.4125.0725.3700307.4100714.3375714 1.0424692-.0725 1.4125-1.291 1.165-2.6 2.28-3.9 3.312-.1747821.1402192-.3919256.2170654-.616.218z"/></g></g></g></svg>