<svg height="512" viewBox="0 0 512 512" width="512" xmlns="http://www.w3.org/2000/svg"><path d="m280 216h-48v-168a24 24 0 0 1 24-24 24 24 0 0 1 24 24z" fill="#dc9315"/><path d="m264 25.47a23.929 23.929 0 0 0 -16 22.53v168h32v-168a23.929 23.929 0 0 0 -16-22.53z" fill="#c48412"/><path d="m144 212.085-93.912 19.915-24.888-117.39a48.007 48.007 0 0 1 3.417-30.165 48 48 0 0 1 75.129-15.931 48 48 0 0 1 15.361 26.186z" fill="#ce9c77"/><path d="m56.492 115.969a8 8 0 0 1 -1.652-15.828l31.308-6.633a8 8 0 0 1 3.317 15.656l-31.309 6.636a8.086 8.086 0 0 1 -1.664.169z" fill="#be906e"/><path d="m63.129 147.273a8 8 0 0 1 -1.652-15.828l31.308-6.633a8 8 0 0 1 3.315 15.657l-31.307 6.631a8.092 8.092 0 0 1 -1.664.173z" fill="#be906e"/><path d="m69.766 178.578a8 8 0 0 1 -1.653-15.828l31.309-6.633a8 8 0 0 1 3.316 15.656l-31.308 6.633a8.1 8.1 0 0 1 -1.664.172z" fill="#be906e"/><path d="m143.134 208-10.335-48.737-52.799 48.737z" fill="#c39372"/><path d="m96 208 104-96v104h-104z" fill="#fbeebd"/><path d="m425.862 99.327 8.974-30.76-46.582-11.582-8.974 30.76a80 80 0 0 0 -46.5 54.387l-28.78 96.828 108.691 27.024 28.783-96.826a80.006 80.006 0 0 0 -15.612-69.831z" fill="#bef5fa"/><path d="m434.836 68.566-31.664-7.872-7.892 27.052a80 80 0 0 0 -46.5 54.387l-28.78 96.826 93.792 23.32 27.682-93.121a80 80 0 0 0 -15.612-69.831z" fill="#b6eaef"/><path d="m383.406 31.249h64v32h-64z" fill="#4298d1" transform="matrix(.97 .241 -.241 .97 23.675 -98.837)"/><path d="m410.958 30.025h32v40.192h-32z" fill="#3e8cc7" transform="matrix(.241 -.97 .97 .241 275.3 452.371)"/><path d="m313.134 208.232 109.206 25.291 19.134-64.365-108.691-27.025z" fill="#4298d1"/><path d="m328 210.419 94.689 21.93 18.785-63.191-94.243-23.432z" fill="#3e8cc7"/><path d="m374.96 464h-237.92a64 64 0 0 1 -63.578-56.664l-17.462-151.336h400l-17.462 151.336a64 64 0 0 1 -63.578 56.664z" fill="#dc9315"/><path d="m480 256h-448a16 16 0 0 1 -16-16v-16a16 16 0 0 1 16-16h8l88 24 88-24h264a16 16 0 0 1 16 16v16a16 16 0 0 1 -16 16z" fill="#ec9e15"/><g fill="#c48412"><path d="m88 376a47.8 47.8 0 0 0 -17.758 3.433l3.22 27.9a63.986 63.986 0 0 0 44.886 53.841 47.992 47.992 0 0 0 -30.348-85.174z"/><path d="m320 392h16v16h-16z"/><path d="m288 392h16v16h-16z"/><path d="m288 424h16v16h-16z"/><path d="m288 328h16v16h-16z"/><path d="m288 360h16v16h-16z"/><path d="m352 392h16v16h-16z"/><path d="m352 424h16v16h-16z"/><path d="m320 424h16v16h-16z"/><path d="m320 360h16v16h-16z"/><path d="m255.058 384.487a28.521 28.521 0 0 0 -51.965-11.787 9.053 9.053 0 0 1 -15.066 0 28.521 28.521 0 0 0 -51.965 11.787l-.012.082a92.538 92.538 0 0 0 11.262 59l11.616 20.328c.022.039.058.067.081.106h28.551l8-8 8 8h28.551c.023-.039.058-.067.081-.106l11.616-20.328a92.538 92.538 0 0 0 11.262-59z"/></g><path d="m454.151 272.02 1.849-16.02h-400l1.849 16.02z" fill="#d38e14"/><path d="m128 304-88-96h176z" fill="#f85542"/><path d="m164 256h-88l44 48z" fill="#d38e14"/><path d="m299.951 256h-57.941a23.925 23.925 0 0 0 7.03 16.97l171.7 171.7a63.763 63.763 0 0 0 17.8-37.331l1.319-11.431z" fill="#c48412"/><path d="m75.998 256h12.002l-40-48-16 .002z" fill="#dc9315"/><path d="m128 304.002-88-96h176z" fill="#97d9a9"/><path d="m194.688 384h-.18a8.006 8.006 0 0 1 -7.824-8.172 68.417 68.417 0 0 1 43.054-62.117l2.848-1.141a8 8 0 0 1 5.945 14.86l-2.851 1.14a52.416 52.416 0 0 0 -33 47.6 8.006 8.006 0 0 1 -7.992 7.83z" fill="#c48412"/><path d="m202.688 376h-.18a8.006 8.006 0 0 1 -7.824-8.172 68.417 68.417 0 0 1 43.054-62.117l2.848-1.141a8 8 0 0 1 5.945 14.86l-2.851 1.14a52.416 52.416 0 0 0 -33 47.6 8.006 8.006 0 0 1 -7.992 7.83z" fill="#a55e00"/><path d="m226.224 464a16.088 16.088 0 0 1 -11.376-4.712l-11.288-11.288-11.288 11.288a16.088 16.088 0 0 1 -11.372 4.712 16.087 16.087 0 0 1 -13.968-8.106l-11.616-20.327a92.542 92.542 0 0 1 -11.262-59l.012-.082a28.521 28.521 0 0 1 28.234-24.485 28.523 28.523 0 0 1 23.731 12.7 9.053 9.053 0 0 0 15.066 0 28.523 28.523 0 0 1 23.727-12.7 28.521 28.521 0 0 1 28.234 24.487l.012.082a92.542 92.542 0 0 1 -11.262 59l-11.616 20.327a16.087 16.087 0 0 1 -13.968 8.104z" fill="#f85542"/><path d="m203.559 403.758a43.834 43.834 0 0 1 -19.579-4.6 8 8 0 1 1 7.157-14.312 27.9 27.9 0 0 0 24.843 0 8 8 0 1 1 7.157 14.312 43.82 43.82 0 0 1 -19.578 4.6z" fill="#ff756a"/><circle cx="88" cy="416" fill="#ff9201" r="48"/><path d="m88 400h-.18a8.006 8.006 0 0 1 -7.82-8.172 68.417 68.417 0 0 1 43.055-62.117l2.847-1.141a8 8 0 0 1 5.946 14.86l-2.848 1.14a52.416 52.416 0 0 0 -33 47.6 8.005 8.005 0 0 1 -8 7.83z" fill="#a55e00"/><path d="m88 403.758a43.817 43.817 0 0 1 -19.578-4.6 8 8 0 0 1 7.156-14.312 27.9 27.9 0 0 0 24.844 0 8 8 0 1 1 7.156 14.312 43.817 43.817 0 0 1 -19.578 4.6z" fill="#e18005"/><path d="m282.98 239.029a24 24 0 0 0 -40.97 16.971h57.941z" fill="#dc9315"/><rect fill="#f5b02e" height="328" rx="24" transform="matrix(.707 -.707 .707 .707 -134.219 357.976)" width="48" x="341.005" y="177.005"/></svg>