<?xml version="1.0" encoding="iso-8859-1"?>
<!-- Generator: Adobe Illustrator 19.0.0, SVG Export Plug-In . SVG Version: 6.00 Build 0)  -->
<svg version="1.1" id="Capa_1" xmlns="http://www.w3.org/2000/svg" xmlns:xlink="http://www.w3.org/1999/xlink" x="0px" y="0px"
	 viewBox="0 0 512 512" style="enable-background:new 0 0 512 512;" xml:space="preserve">
<g>
	
		<rect x="472.145" y="156.589" transform="matrix(-0.7071 0.7071 -0.7071 -0.7071 956.5793 -11.2122)" style="fill:#03AA6F;" width="16.933" height="71.837"/>
	
		<rect x="393.892" y="184.038" transform="matrix(-0.7071 0.7071 -0.7071 -0.7071 869.8536 24.7039)" style="fill:#03AA6F;" width="71.837" height="16.933"/>
	<path style="fill:#03AA6F;" d="M500.028,274.685l-44.813-44.813l-44.813,44.813l-11.972-11.972l50.799-50.799
		c3.302-3.302,8.67-3.302,11.972,0L512,262.714L500.028,274.685z"/>
	<path style="fill:#03AA6F;" d="M500.028,325.484l-44.813-44.813l-44.813,44.813l-11.972-11.972l50.799-50.799
		c3.302-3.302,8.67-3.302,11.972,0L512,313.513L500.028,325.484z"/>
</g>
<path style="fill:#824228;" d="M458.458,159.279c-3.166-1.312-6.807-0.584-9.228,1.837l-2.481,2.481v327.347h16.933V167.102
	C463.682,163.682,461.625,160.592,458.458,159.279z"/>
<g>
	
		<rect x="319.752" y="80.391" transform="matrix(-0.7071 0.7071 -0.7071 -0.7071 642.5465 -33.5333)" style="fill:#03AA6F;" width="16.933" height="71.837"/>
	
		<rect x="241.496" y="107.82" transform="matrix(-0.7071 0.7071 -0.7071 -0.7071 555.8029 2.3514)" style="fill:#03AA6F;" width="71.837" height="16.933"/>
	<path style="fill:#03AA6F;" d="M347.632,198.487l-44.813-44.813l-44.813,44.813l-11.972-11.972l50.799-50.799
		c3.302-3.302,8.67-3.302,11.972,0l50.799,50.799L347.632,198.487z"/>
	<path style="fill:#03AA6F;" d="M347.632,249.286l-44.813-44.813l-44.813,44.813l-11.972-11.972l50.799-50.799
		c3.302-3.302,8.67-3.302,11.972,0l50.799,50.799L347.632,249.286z"/>
	<path style="fill:#03AA6F;" d="M348.64,300.085l-44.813-44.813l-44.813,44.813l-11.972-11.972l50.799-50.799
		c3.302-3.302,8.67-3.302,11.972,0l50.799,50.799L348.64,300.085z"/>
</g>
<path style="fill:#824228;" d="M306.062,83.09c-3.166-1.312-6.807-0.593-9.228,1.829l-2.481,2.481v327.347h16.933V90.904
	C311.286,87.484,309.22,84.402,306.062,83.09z"/>
<g>
	
		<rect x="73.721" y="122.715" transform="matrix(-0.7071 0.7071 -0.7071 -0.7071 252.4734 212.6898)" style="fill:#03AA6F;" width="16.933" height="71.837"/>
	
		<rect x="-4.529" y="150.173" transform="matrix(-0.7071 0.7071 -0.7071 -0.7071 165.7597 248.6179)" style="fill:#03AA6F;" width="71.837" height="16.933"/>
	<path style="fill:#03AA6F;" d="M101.597,240.82l-44.813-44.813L11.972,240.82L0,228.848l50.799-50.799
		c3.31-3.302,8.661-3.302,11.972,0l50.799,50.799L101.597,240.82z"/>
	<path style="fill:#03AA6F;" d="M101.597,291.618l-44.813-44.813l-44.813,44.813L0,279.647l50.799-50.799
		c3.31-3.302,8.661-3.302,11.972,0l50.799,50.799L101.597,291.618z"/>
	<path style="fill:#03AA6F;" d="M102.613,342.417L57.8,297.604l-44.813,44.813L1.016,330.445l50.799-50.799
		c3.31-3.302,8.67-3.302,11.972,0l50.799,50.799L102.613,342.417z"/>
</g>
<path style="fill:#824228;" d="M60.027,125.414c-3.166-1.312-6.807-0.584-9.228,1.837l-2.481,2.481V505.76h16.933V133.237
	C65.251,129.816,63.194,126.726,60.027,125.414z"/>
<polygon style="fill:#AA5634;" points="175.823,497.294 175.823,336.431 421.35,336.431 497.548,497.294 395.95,497.294 "/>
<g>
	<polyline style="fill:#FFCB5A;" points="260.487,497.294 175.823,336.431 91.158,497.294 260.487,497.294 	"/>
	<path style="fill:#FFCB5A;" d="M218.155,61.272c0,30.395-24.637,55.032-55.032,55.032s-55.032-24.637-55.032-55.032
		c47.979,47.979,103.011-7.053,55.032-55.032C193.518,6.24,218.155,30.877,218.155,61.272z"/>
</g>
<g>
</g>
<g>
</g>
<g>
</g>
<g>
</g>
<g>
</g>
<g>
</g>
<g>
</g>
<g>
</g>
<g>
</g>
<g>
</g>
<g>
</g>
<g>
</g>
<g>
</g>
<g>
</g>
<g>
</g>
</svg>
